# Blender 3.3.1
# www.blender.org
mtllib cabinet.mtl
o 189
v 0.001381 1.009703 0.992417
v 0.001381 1.007274 0.992417
v 0.001381 1.011411 0.992417
v 0.001381 1.002530 0.992417
v 0.001381 1.009302 0.992417
v 0.001381 1.005221 0.992417
v 0.001381 1.007061 0.992417
v 0.001381 1.005090 0.992417
v -0.996447 1.000582 0.992417
v -0.996447 1.000582 0.992417
v -0.996447 1.000582 0.992417
v -0.996447 1.000582 0.992417
v -0.996447 1.000582 0.992417
v -0.996447 1.000582 0.992417
v 0.001381 1.000582 0.992417
v 0.001381 1.000582 0.992417
v 0.001381 1.000582 0.992417
v 0.001381 1.000582 0.992417
v 0.001381 1.000582 0.992417
v 0.001381 1.011435 0.992417
v -0.996447 1.010362 0.992417
v -0.996447 1.011013 0.992417
v -0.996447 1.011967 0.992417
v -0.996447 1.008756 0.992417
v -0.996447 1.010963 0.992417
v -0.996447 1.008706 0.992417
v 0.001381 1.000582 -0.007687
v 0.001381 1.000582 -0.005688
v 0.001381 1.000582 -0.005580
v 0.001381 0.989110 -0.004634
v -0.860816 1.001585 -0.009170
v -0.860816 0.999356 -0.008187
v -0.860816 0.994472 -0.010565
v -0.860816 0.999356 -0.009408
v -0.996447 1.000955 0.019139
v -0.996447 1.000955 0.023248
v -0.996447 1.000955 0.024232
v -0.996447 1.000955 -0.008088
v -0.860816 1.000582 -0.013280
v -0.860816 1.000582 -0.009170
v 0.001381 0.988074 -0.007687
v 0.001381 1.000763 -0.005688
v 0.001381 0.988074 -0.005580
v 0.001381 0.988074 -0.004634
v -0.861934 0.996260 -0.012815
v -0.861934 0.996260 -0.011658
v -0.862214 0.995689 -0.009613
v -0.862214 1.001585 -0.012507
v -0.862214 0.999356 -0.012808
v -0.862214 1.001585 -0.011650
v -0.996447 1.000582 -0.012418
v -0.996447 1.000582 0.019139
v -0.996447 1.000582 0.023248
v -0.996447 1.000582 0.024232
v -0.974847 1.000955 0.003338
v -0.974847 1.000955 -0.009519
v -0.861934 1.000582 -0.009640
v -0.861934 1.000582 -0.005530
v -0.865547 0.995689 -0.000942
v -0.865547 0.999356 -0.010688
v -0.974847 1.000582 0.017350
v -0.974847 1.000582 0.021459
v -0.954593 1.000955 0.003555
v -0.954593 1.000955 -0.009302
v -0.865547 1.000582 -0.006035
v -0.865547 1.000582 -0.001925
v -0.871620 0.995689 0.002591
v -0.871620 0.995689 -0.010265
v -0.954593 1.000582 0.015249
v -0.954593 1.000582 0.019359
v -0.935882 1.000955 0.004182
v -0.935882 1.000955 -0.008675
v -0.871620 1.000582 -0.002502
v -0.871620 1.000582 0.001608
v -0.880093 1.000955 0.006016
v -0.880093 1.000955 -0.010852
v -0.935882 1.000582 0.012858
v -0.935882 1.000582 0.016968
v -0.918914 1.000955 0.010740
v -0.918914 1.000955 -0.008375
v -0.880093 1.000582 0.000923
v -0.880093 1.000582 0.005032
v -0.890877 1.000955 0.009296
v -0.890877 1.000955 -0.009820
v -0.918914 1.000582 0.010202
v -0.918914 1.000582 0.014312
v -0.903862 1.000955 0.001586
v -0.903862 1.000955 -0.011271
v -0.890877 1.000582 0.004203
v -0.890877 1.000582 0.008312
v -0.903862 1.000582 0.007306
v -0.903862 1.000582 0.011416
v 0.001381 -0.002719 0.992417
v 0.001381 -0.002719 0.992417
v 0.001381 -0.002719 0.992417
v 0.001381 -0.002719 0.992417
v 0.001381 -0.002719 0.992417
v 0.001381 -0.002719 0.992417
v -0.996447 -0.014499 0.992417
v -0.996447 -0.014972 0.992417
v -0.996447 -0.011683 0.992417
v -0.996447 -0.015127 0.992417
v -0.996447 -0.015409 0.992417
v -0.996447 -0.001684 0.992417
v 0.001381 -0.013024 0.992417
v 0.001381 -0.014972 0.992417
v 0.001381 -0.011683 0.992417
v 0.001381 -0.015127 0.992417
v 0.001381 -0.015409 0.992417
v 0.001381 -0.001684 0.992417
v -0.996447 -0.002719 0.992417
v -0.996447 -0.002719 0.992417
v -0.996447 -0.002719 0.992417
v -0.996447 -0.002719 0.992417
v -0.996447 -0.002719 0.992417
v -0.996447 0.010570 0.992417
v 0.001381 -0.001761 -0.006652
v 0.001381 -0.001761 -0.003315
v 0.001381 -0.009459 -0.007990
v 0.001381 -0.001761 -0.000526
v -0.860816 0.014665 -0.004353
v -0.860816 -0.002719 0.003112
v -0.996447 0.008548 -0.008001
v -0.996447 0.008548 0.009519
v -0.996447 0.008548 0.019972
v -0.996447 0.008548 0.035530
v -0.860816 0.004742 -0.004353
v -0.860816 -0.010574 0.448372
v 0.001381 -0.002719 -0.007490
v 0.001381 -0.002719 -0.007990
v 0.001381 -0.002719 -0.000475
v 0.001381 -0.002719 0.138549
v -0.861934 -0.002719 -0.000713
v -0.861934 -0.002719 0.006752
v -0.862214 0.014665 -0.007990
v -0.862214 0.014665 -0.000526
v -0.996447 -0.002411 -0.007661
v -0.996447 0.006015 -0.008001
v -0.996447 -0.001081 -0.006181
v -0.996447 0.006391 0.004271
v -0.974847 -0.002719 0.026277
v -0.974847 -0.002719 0.033741
v -0.861934 0.004742 -0.005469
v -0.861934 0.008274 -0.000713
v -0.865547 0.014665 0.002892
v -0.865547 0.014665 0.010356
v -0.974847 0.006299 -0.005893
v -0.974847 0.006299 0.004560
v -0.954593 -0.002719 0.024176
v -0.954593 -0.002719 0.031640
v -0.865547 0.004742 -0.005202
v -0.865547 0.014785 -0.001865
v -0.871620 -0.002719 0.006425
v -0.871620 -0.002719 0.013890
v -0.954593 -0.000308 -0.006137
v -0.954593 -0.000308 0.004315
v -0.935882 -0.002719 0.021785
v -0.935882 -0.002719 0.029250
v -0.871620 -0.002599 -0.004830
v -0.871620 -0.002599 -0.001493
v -0.880093 -0.002719 0.009850
v -0.880093 -0.002719 0.017314
v -0.935882 -0.000308 -0.006269
v -0.935882 -0.000308 0.004184
v -0.918914 -0.002719 0.019129
v -0.918914 -0.002719 0.026593
v -0.880093 0.008274 -0.004346
v -0.880093 0.008274 -0.001008
v -0.890877 -0.002719 0.013130
v -0.890877 -0.002719 0.020594
v -0.918914 -0.002599 -0.005335
v -0.918914 -0.000308 -0.004256
v -0.903862 -0.002719 0.016233
v -0.903862 -0.002719 0.023698
v -0.890877 -0.000308 -0.004571
v -0.890877 -0.000308 0.005882
v -0.903862 -0.002599 -0.004262
v -0.903862 -0.000308 -0.003184
v -0.996447 1.000582 -0.013199
v -0.996447 1.000582 -0.013199
v -0.996447 1.000582 -0.013199
v -0.996447 1.000582 -0.013199
v -0.996447 1.000582 -0.013199
v -0.996447 1.000582 -0.013199
v -0.978627 1.000582 0.992417
v -0.978627 1.000582 0.992417
v -0.978627 1.000582 0.992417
v -0.978627 1.000582 0.992417
v -0.978627 1.000582 0.992417
v -0.978627 1.000582 0.992417
v -0.978627 1.000582 -0.013199
v -0.978627 1.000582 -0.013199
v -0.978627 1.000582 -0.013199
v -0.978627 1.000582 -0.013199
v -0.978627 1.000582 -0.013199
v -0.978627 1.000582 -0.013199
v -0.978627 -0.002719 -0.013199
v -0.978627 -0.002719 -0.013199
v -0.978627 -0.002719 -0.013199
v -0.978627 -0.002719 -0.013199
v -0.978627 -0.002719 -0.013199
v -0.978627 -0.002719 -0.013199
v -0.978627 -0.002719 0.992417
v -0.978627 -0.002719 0.992417
v -0.978627 -0.002719 0.992417
v -0.978627 -0.002719 0.992417
v -0.978627 -0.002719 0.992417
v -0.978627 0.010570 0.992417
v -0.996447 -0.002719 -0.013199
v -0.996447 -0.002719 -0.013199
v -0.996447 -0.002719 -0.013199
v -0.996447 -0.002719 -0.013199
v -0.996447 -0.002719 -0.013199
v -0.996447 0.008548 -0.013199
v -0.016439 1.000582 0.992417
v -0.016439 1.000582 0.992417
v -0.016439 1.000582 0.992417
v -0.016439 1.000582 0.992417
v -0.016439 1.000582 0.992417
v -0.016439 1.000582 0.992417
v -0.016439 -0.002719 0.992417
v -0.016439 -0.002719 0.992417
v -0.016439 -0.002719 0.992417
v -0.016439 -0.002719 0.992417
v -0.016439 -0.002719 0.992417
v -0.016439 -0.002719 0.992417
v -0.016439 -0.002719 0.983513
v -0.016439 -0.002719 0.983513
v -0.016439 -0.002719 0.983513
v -0.016439 -0.002719 0.983513
v -0.016439 -0.002719 0.983513
v -0.016439 -0.002719 0.983513
v -0.978627 1.000582 0.983513
v -0.978627 1.000582 0.983513
v -0.978627 1.000582 0.983513
v -0.978627 1.000582 0.983513
v -0.978627 1.000582 0.983513
v -0.978627 1.000582 0.983513
v -0.978627 -0.002719 0.983513
v -0.978627 -0.002719 0.983513
v -0.978627 -0.002719 0.983513
v -0.978627 -0.002719 0.983513
v -0.978627 -0.002719 0.983513
v -0.978627 -0.002719 0.983513
v -0.016439 1.000582 0.983513
v -0.016439 1.000582 0.983513
v -0.016439 1.000582 0.983513
v -0.016439 1.000582 0.983513
v -0.016439 1.000582 0.983513
v -0.016439 1.000582 0.983513
v -0.016439 1.000582 -0.004295
v -0.016439 0.987894 -0.004295
v -0.016439 0.989682 -0.004295
v -0.016439 0.975183 -0.004295
v -0.016439 0.972954 -0.004295
v -0.016439 0.989110 -0.004295
v -0.978627 -0.002719 -0.004295
v -0.978627 -0.002719 -0.004295
v -0.978627 -0.002719 -0.004295
v -0.978627 -0.002719 -0.004295
v -0.978627 -0.002719 -0.004295
v -0.978627 -0.002719 -0.013165
v -0.016439 -0.002719 -0.004295
v -0.016439 -0.002719 -0.004295
v -0.016439 -0.002719 -0.004295
v -0.016439 -0.002719 -0.004295
v -0.016439 -0.002719 -0.004295
v -0.016439 -0.002719 -0.004295
v -0.978627 1.000582 -0.004295
v -0.978627 1.000582 -0.004295
v -0.978627 1.000582 -0.004295
v -0.978627 1.000582 -0.004295
v -0.978627 1.000582 -0.004295
v -0.978627 1.000582 -0.004295
v -0.016439 -0.002719 -0.013199
v -0.016439 -0.002719 -0.013199
v -0.016439 -0.002719 -0.013199
v -0.016439 -0.002719 -0.013199
v -0.016439 -0.002719 -0.013199
v -0.016439 -0.002719 -0.013199
v -0.016439 1.000582 -0.013199
v -0.016439 0.987894 -0.013199
v -0.016439 0.989682 -0.013199
v -0.016439 0.995007 -0.013199
v -0.016439 0.992778 -0.013199
v -0.016439 0.969287 -0.013199
v -0.461894 0.015829 -0.013199
v -0.461894 0.014665 -0.013199
v -0.461894 1.000582 -0.013199
v -0.461894 1.000582 -0.013199
v -0.105528 0.972954 -0.013199
v -0.105528 0.969287 -0.013199
v -0.105528 -0.002719 -0.013199
v -0.105528 -0.002719 -0.013199
vn -0.0000 -0.0000 1.0000
vn -0.0000 -0.0000 -1.0000
vn -0.0000 -1.0000 -0.0000
vn -0.0000 1.0000 -0.0000
vn 1.0000 -0.0000 -0.0000
vn 0.0027 0.9999 -0.0100
vn -0.0035 -1.0000 0.0089
vn -1.0000 -0.0000 -0.0000
vn -0.9483 0.2890 -0.1314
vn 0.8810 -0.4567 0.1237
vn -0.4400 -0.8097 0.3884
vn 0.6977 -0.3943 -0.5982
vn -1.0000 -0.0002 -0.0000
vn -0.0110 0.9999 -0.0114
vn 0.0005 -1.0000 0.0078
vn 0.0132 0.9997 -0.0213
vn -0.0158 -0.9997 0.0172
vn -0.3496 0.9349 -0.0614
vn -0.6608 -0.7464 -0.0792
vn 0.0001 0.9999 -0.0111
vn -0.0001 -1.0000 0.0078
vn -0.0103 0.9998 -0.0177
vn 0.5193 -0.8512 0.0757
vn 0.0004 0.9999 -0.0111
vn -0.0003 -1.0000 0.0078
vn 0.5429 0.8380 0.0547
vn -0.5244 -0.8497 -0.0542
vn 0.0042 0.9999 -0.0109
vn -0.0035 0.9999 -0.0116
vn 0.0008 -1.0000 0.0079
vn -0.0072 0.9999 -0.0118
vn 0.0015 -1.0000 0.0079
vn 0.0063 0.9999 -0.0105
vn -0.0009 -1.0000 0.0077
vn -0.0000 -1.0000 -0.0099
vn -0.0000 0.9999 0.0134
vn -0.0000 0.9998 0.0174
vn -0.0076 -0.9998 -0.0175
vn -0.0067 1.0000 0.0067
vn -0.9903 0.0356 -0.1341
vn 0.0363 0.9992 -0.0139
vn 0.7517 -0.0766 -0.6551
vn 0.4601 0.8878 0.0103
vn -0.4631 -0.8862 -0.0104
vn 0.0145 -0.9998 -0.0145
vn 0.1322 0.9904 0.0412
vn 0.0201 0.9998 -0.0000
vn -0.0201 -0.9998 -0.0000
vn 0.9756 0.1754 0.1321
vn -0.9755 -0.1751 -0.1331
vn 0.3234 -0.9462 -0.0100
vn 0.0040 0.9998 0.0218
vn -0.0012 -0.9999 -0.0166
vn 0.8574 0.4984 0.1279
vn -0.9446 0.3057 -0.1196
vn 0.9445 -0.3055 0.1205
vn -0.3103 -0.9503 -0.0238
vn 0.3103 0.9502 0.0274
vn 0.7696 -0.6321 0.0906
vn -0.9387 0.3255 -0.1138
vn -0.0001 -0.9999 -0.0114
vn 0.0001 0.9999 0.0150
vn -0.7868 -0.6084 -0.1040
vn 0.7866 0.6082 0.1065
vn -0.1327 -0.9910 -0.0193
vn 0.0077 0.9999 0.0155
vn 0.6210 -0.7818 0.0568
vn -0.6439 0.7630 -0.0574
vn 0.0006 -1.0000 -0.0091
vn -0.0011 0.9999 0.0148
vn 0.1739 -0.9847 0.0072
vn -0.0098 0.9999 0.0140
vn -0.5978 0.8016 -0.0106
vn 0.5344 0.8452 0.0095
vn 0.0138 0.9999 -0.0000
vn -0.0000 0.5566 -0.8307
vn 0.0287 0.9996 -0.0000
vn -0.0119 -0.9999 -0.0000
vn 0.0053 0.4699 0.8827
vn -0.0048 -0.8338 -0.5521
vt 0.323333 0.294088
vt 0.656667 0.294088
vt 0.676667 0.316581
vt 0.010000 0.649915
vt 0.656667 0.343333
vt 0.990000 0.343333
vt 0.656667 0.343333
vt 0.990000 0.343333
vt 0.010000 0.286986
vt 0.343333 0.286986
vt 0.676667 0.343333
vt 0.343333 0.343333
vt 0.010000 0.642250
vt 0.676667 0.308917
vt 0.323333 0.286986
vt 0.656667 0.286986
vt 0.990000 0.343333
vt 0.656667 0.343333
vt 0.676667 0.308917
vt 0.010000 0.642250
vt 0.010000 0.294088
vt 0.343333 0.294088
vt 0.343333 0.343333
vt 0.676667 0.343333
vt 0.010000 0.649915
vt 0.676667 0.316581
vt 0.990000 0.633678
vt 0.656667 0.633678
vt 0.990000 0.308917
vt 0.323333 0.642250
vt 0.385923 0.632680
vt 0.719257 0.632680
vt 0.385923 0.632680
vt 0.719257 0.632680
vt 0.312655 0.649915
vt 0.979322 0.316581
vt 0.343333 0.623783
vt 0.676667 0.623783
vt 0.719257 0.632680
vt 0.385923 0.632680
vt 0.990000 0.316581
vt 0.323333 0.649915
vt 0.656667 0.633678
vt 0.990000 0.633678
vt 0.385573 0.631681
vt 0.718906 0.631681
vt 0.385485 0.633678
vt 0.718818 0.633678
vt 0.385485 0.633678
vt 0.718818 0.633678
vt 0.312655 0.642250
vt 0.979322 0.308917
vt 0.676667 0.623783
vt 0.343333 0.623783
vt 0.350116 0.624274
vt 0.683450 0.624274
vt 0.718906 0.631681
vt 0.385573 0.631681
vt 0.384438 0.630692
vt 0.717771 0.630692
vt 0.683450 0.624274
vt 0.350116 0.624274
vt 0.356476 0.624851
vt 0.689809 0.624851
vt 0.717771 0.630692
vt 0.384438 0.630692
vt 0.382531 0.629722
vt 0.715864 0.629722
vt 0.689809 0.624851
vt 0.356476 0.624851
vt 0.362352 0.625507
vt 0.695685 0.625507
vt 0.715864 0.629722
vt 0.382531 0.629722
vt 0.379870 0.628782
vt 0.713204 0.628782
vt 0.695685 0.625507
vt 0.362352 0.625507
vt 0.367680 0.626236
vt 0.701013 0.626236
vt 0.713204 0.628782
vt 0.379870 0.628782
vt 0.376484 0.627882
vt 0.709817 0.627882
vt 0.701013 0.626236
vt 0.367680 0.626236
vt 0.372406 0.627031
vt 0.705740 0.627031
vt 0.709817 0.627882
vt 0.376484 0.627882
vt 0.705740 0.627031
vt 0.372406 0.627031
vt 0.323333 0.017102
vt 0.656667 0.017102
vt 0.676667 0.017664
vt 0.010000 0.350998
vt 0.656667 0.343333
vt 0.990000 0.343333
vt 0.010000 0.010000
vt 0.343333 0.010000
vt 0.676667 0.343333
vt 0.343333 0.343333
vt 0.010000 0.343333
vt 0.676667 0.010000
vt 0.323333 0.010000
vt 0.656667 0.010000
vt 0.990000 0.343333
vt 0.656667 0.343333
vt 0.676667 0.010000
vt 0.010000 0.343333
vt 0.010000 0.017102
vt 0.343333 0.017102
vt 0.343333 0.343333
vt 0.676667 0.343333
vt 0.010000 0.350998
vt 0.676667 0.017664
vt 0.990000 0.633678
vt 0.656667 0.633678
vt 0.990000 0.010000
vt 0.323333 0.343333
vt 0.385923 0.632680
vt 0.719257 0.632680
vt 0.312655 0.350998
vt 0.979322 0.017664
vt 0.343333 0.623783
vt 0.676667 0.623783
vt 0.719257 0.632680
vt 0.385923 0.632680
vt 0.990000 0.017664
vt 0.323333 0.350998
vt 0.656667 0.633678
vt 0.990000 0.633678
vt 0.385573 0.631681
vt 0.718906 0.631681
vt 0.385485 0.633678
vt 0.718818 0.633678
vt 0.312655 0.343333
vt 0.979322 0.010000
vt 0.676667 0.623783
vt 0.343333 0.623783
vt 0.350116 0.624274
vt 0.683450 0.624274
vt 0.718906 0.631681
vt 0.385573 0.631681
vt 0.384438 0.630692
vt 0.717771 0.630692
vt 0.683450 0.624274
vt 0.350116 0.624274
vt 0.356476 0.624851
vt 0.689809 0.624851
vt 0.717771 0.630692
vt 0.384438 0.630692
vt 0.382531 0.629722
vt 0.715864 0.629722
vt 0.689809 0.624851
vt 0.356476 0.624851
vt 0.362352 0.625507
vt 0.695685 0.625507
vt 0.715864 0.629722
vt 0.382531 0.629722
vt 0.379870 0.628782
vt 0.713204 0.628782
vt 0.695685 0.625507
vt 0.362352 0.625507
vt 0.367680 0.626236
vt 0.701013 0.626236
vt 0.713204 0.628782
vt 0.379870 0.628782
vt 0.376484 0.627882
vt 0.709817 0.627882
vt 0.701013 0.626236
vt 0.367680 0.626236
vt 0.372406 0.627031
vt 0.705740 0.627031
vt 0.709817 0.627882
vt 0.376484 0.627882
vt 0.705740 0.627031
vt 0.372406 0.627031
vt 0.343333 0.619305
vt 0.676667 0.619305
vt 0.343333 0.286986
vt 0.010000 0.286986
vt 0.307822 0.642250
vt 0.974488 0.308917
vt 0.348929 0.343333
vt 0.682263 0.343333
vt 0.676667 0.308917
vt 0.010000 0.642250
vt 0.015596 0.286986
vt 0.348929 0.286986
vt 0.348929 0.619305
vt 0.682263 0.619305
vt 0.974488 0.308917
vt 0.307822 0.642250
vt 0.348929 0.286986
vt 0.015596 0.286986
vt 0.974488 0.017664
vt 0.307822 0.350998
vt 0.348929 0.017102
vt 0.015596 0.017102
vt 0.682263 0.619305
vt 0.348929 0.619305
vt 0.676667 0.017664
vt 0.010000 0.350998
vt 0.015596 0.017102
vt 0.348929 0.017102
vt 0.682263 0.343333
vt 0.348929 0.343333
vt 0.343333 0.017102
vt 0.010000 0.017102
vt 0.307822 0.350998
vt 0.974488 0.017664
vt 0.676667 0.619305
vt 0.343333 0.619305
vt 0.317737 0.286986
vt 0.651071 0.286986
vt 0.676667 0.308917
vt 0.010000 0.642250
vt 0.651071 0.343333
vt 0.984404 0.343333
vt 0.317737 0.017102
vt 0.651071 0.017102
vt 0.984404 0.343333
vt 0.651071 0.343333
vt 0.676667 0.017664
vt 0.010000 0.350998
vt 0.984404 0.345777
vt 0.651071 0.345777
vt 0.679304 0.017664
vt 0.012637 0.350998
vt 0.651071 0.017102
vt 0.317737 0.017102
vt 0.348929 0.345777
vt 0.682263 0.345777
vt 0.012637 0.642250
vt 0.679304 0.308917
vt 0.348929 0.286986
vt 0.015596 0.286986
vt 0.682263 0.345777
vt 0.348929 0.345777
vt 0.012637 0.350998
vt 0.679304 0.017664
vt 0.348929 0.017102
vt 0.015596 0.017102
vt 0.679304 0.308917
vt 0.012637 0.642250
vt 0.651071 0.345777
vt 0.984404 0.345777
vt 0.651071 0.286986
vt 0.317737 0.286986
vt 0.317737 0.286986
vt 0.651071 0.286986
vt 0.971851 0.308917
vt 0.305185 0.642250
vt 0.651071 0.616861
vt 0.984404 0.616861
vt 0.015596 0.017102
vt 0.348929 0.017102
vt 0.682263 0.616861
vt 0.348929 0.616861
vt 0.305185 0.350998
vt 0.971851 0.017664
vt 0.317737 0.017102
vt 0.651071 0.017102
vt 0.984404 0.616861
vt 0.651071 0.616861
vt 0.971851 0.017664
vt 0.305185 0.350998
vt 0.015596 0.286986
vt 0.348929 0.286986
vt 0.348929 0.616861
vt 0.682263 0.616861
vt 0.305185 0.642250
vt 0.971851 0.308917
vt 0.984404 0.619305
vt 0.651071 0.619305
vt 0.974488 0.017664
vt 0.307822 0.350998
vt 0.651071 0.017102
vt 0.317737 0.017102
vt 0.974488 0.308917
vt 0.307822 0.642250
vt 0.651071 0.619305
vt 0.984404 0.619305
vt 0.651071 0.286986
vt 0.317737 0.286986
vt 0.177858 0.017102
vt 0.511191 0.017102
vt 0.177858 0.286986
vt 0.511191 0.286986
vt 0.289762 0.286986
vt 0.623096 0.286986
vt 0.289762 0.017102
vt 0.623096 0.017102
s 0
f 1/1/1 9/9/1 15/15/1
f 9/9/1 1/1/1 21/21/1
f 16/16/2 10/10/2 2/2/2
f 22/22/2 2/2/2 10/10/2
f 11/11/3 27/27/3 17/17/3
f 18/18/4 28/28/4 12/12/4
f 29/29/5 3/3/5 19/19/5
f 20/20/5 4/4/5 30/30/5
f 31/31/6 23/23/6 5/5/6
f 6/6/7 24/24/7 32/32/7
f 35/35/8 13/13/8 25/25/8
f 26/26/5 14/14/5 36/36/5
f 27/27/3 11/11/3 39/39/3
f 40/40/4 12/12/4 28/28/4
f 3/3/8 29/29/8 41/41/8
f 42/42/8 30/30/8 4/4/8
f 23/23/9 31/31/9 45/45/9
f 46/46/10 32/32/10 24/24/10
f 7/7/11 47/47/11 33/33/11
f 34/34/12 48/48/12 8/8/12
f 13/13/13 35/35/13 51/51/13
f 52/52/5 36/36/5 14/14/5
f 23/23/14 55/55/14 37/37/14
f 38/38/15 56/56/15 24/24/15
f 39/39/3 11/11/3 57/57/3
f 58/58/4 12/12/4 40/40/4
f 49/49/16 5/5/16 43/43/16
f 44/44/17 6/6/17 50/50/17
f 23/23/18 45/45/18 59/59/18
f 60/60/19 46/46/19 24/24/19
f 61/61/3 11/11/3 53/53/3
f 54/54/4 12/12/4 62/62/4
f 23/23/20 63/63/20 55/55/20
f 56/56/21 64/64/21 24/24/21
f 57/57/3 11/11/3 65/65/3
f 66/66/4 12/12/4 58/58/4
f 23/23/22 59/59/22 67/67/22
f 68/68/23 60/60/23 24/24/23
f 69/69/3 11/11/3 61/61/3
f 62/62/4 12/12/4 70/70/4
f 23/23/24 71/71/24 63/63/24
f 64/64/25 72/72/25 24/24/25
f 65/65/3 11/11/3 73/73/3
f 74/74/4 12/12/4 66/66/4
f 23/23/26 67/67/26 75/75/26
f 76/76/27 68/68/27 24/24/27
f 77/77/3 11/11/3 69/69/3
f 70/70/4 12/12/4 78/78/4
f 23/23/28 79/79/28 71/71/28
f 72/72/21 80/80/21 24/24/21
f 73/73/3 11/11/3 81/81/3
f 82/82/4 12/12/4 74/74/4
f 23/23/29 75/75/29 83/83/29
f 84/84/30 76/76/30 24/24/30
f 85/85/3 11/11/3 77/77/3
f 78/78/4 12/12/4 86/86/4
f 23/23/31 87/87/31 79/79/31
f 80/80/32 88/88/32 24/24/32
f 81/81/3 11/11/3 89/89/3
f 90/90/4 12/12/4 82/82/4
f 23/23/33 83/83/33 87/87/33
f 88/88/34 84/84/34 24/24/34
f 91/91/3 11/11/3 85/85/3
f 86/86/4 12/12/4 92/92/4
f 89/89/3 11/11/3 91/91/3
f 92/92/4 12/12/4 90/90/4
f 93/93/1 99/99/1 105/105/1
f 99/99/1 93/93/1 111/111/1
f 106/106/2 100/100/2 94/94/2
f 112/112/2 94/94/2 100/100/2
f 101/101/35 117/117/35 107/107/35
f 108/108/36 118/118/36 102/102/36
f 119/119/5 95/95/5 109/109/5
f 110/110/5 96/96/5 120/120/5
f 121/121/37 113/113/37 97/97/37
f 98/98/3 114/114/3 122/122/3
f 123/123/8 103/103/8 115/115/8
f 116/116/5 104/104/5 124/124/5
f 117/117/38 101/101/38 127/127/38
f 128/128/39 102/102/39 118/118/39
f 95/95/5 119/119/5 129/129/5
f 130/130/5 120/120/5 96/96/5
f 113/113/40 121/121/40 133/133/40
f 134/134/3 122/122/3 114/114/3
f 97/97/41 135/135/41 121/121/41
f 122/122/42 136/136/42 98/98/42
f 103/103/8 123/123/8 137/137/8
f 138/138/5 124/124/5 104/104/5
f 113/113/43 141/141/43 125/125/43
f 126/126/44 142/142/44 114/114/44
f 127/127/45 101/101/45 143/143/45
f 144/144/46 102/102/46 128/128/46
f 135/135/47 97/97/47 131/131/47
f 132/132/48 98/98/48 136/136/48
f 113/113/49 133/133/49 145/145/49
f 146/146/50 134/134/50 114/114/50
f 147/147/51 101/101/51 139/139/51
f 140/140/52 102/102/52 148/148/52
f 113/113/4 149/149/4 141/141/4
f 142/142/3 150/150/3 114/114/3
f 143/143/53 101/101/53 151/151/53
f 152/152/54 102/102/54 144/144/54
f 113/113/55 145/145/55 153/153/55
f 154/154/56 146/146/56 114/114/56
f 155/155/57 101/101/57 147/147/57
f 148/148/58 102/102/58 156/156/58
f 113/113/4 157/157/4 149/149/4
f 150/150/3 158/158/3 114/114/3
f 151/151/59 101/101/59 159/159/59
f 160/160/60 102/102/60 152/152/60
f 113/113/4 153/153/4 161/161/4
f 162/162/3 154/154/3 114/114/3
f 163/163/61 101/101/61 155/155/61
f 156/156/62 102/102/62 164/164/62
f 113/113/4 165/165/4 157/157/4
f 158/158/3 166/166/3 114/114/3
f 159/159/63 101/101/63 167/167/63
f 168/168/64 102/102/64 160/160/64
f 113/113/4 161/161/4 169/169/4
f 170/170/3 162/162/3 114/114/3
f 171/171/65 101/101/65 163/163/65
f 164/164/66 102/102/66 172/172/66
f 113/113/4 173/173/4 165/165/4
f 166/166/3 174/174/3 114/114/3
f 167/167/67 101/101/67 175/175/67
f 176/176/68 102/102/68 168/168/68
f 113/113/4 169/169/4 173/173/4
f 174/174/3 170/170/3 114/114/3
f 177/177/69 101/101/69 171/171/69
f 172/172/70 102/102/70 178/178/70
f 175/175/71 101/101/71 177/177/71
f 178/178/72 102/102/72 176/176/72
f 179/179/4 185/185/4 191/191/4
f 185/185/4 179/179/4 12/12/4
f 192/192/3 186/186/3 180/180/3
f 11/11/3 180/180/3 186/186/3
f 187/187/5 197/197/5 193/193/5
f 194/194/8 198/198/8 188/188/8
f 199/199/2 181/181/2 195/195/2
f 196/196/1 182/182/1 200/200/1
f 183/183/8 115/115/8 13/13/8
f 14/14/5 116/116/5 184/184/5
f 111/111/1 189/189/1 9/9/1
f 10/10/2 190/190/2 112/112/2
f 197/197/5 187/187/5 203/203/5
f 204/204/8 188/188/8 198/198/8
f 181/181/2 199/199/2 209/209/2
f 210/210/1 200/200/1 182/182/1
f 115/115/8 183/183/8 211/211/8
f 212/212/5 184/184/5 116/116/5
f 189/189/1 111/111/1 205/205/1
f 206/206/2 112/112/2 190/190/2
f 114/114/3 201/201/3 207/207/3
f 208/208/73 202/202/73 113/113/73
f 201/201/3 114/114/3 213/213/3
f 214/214/74 113/113/74 202/202/74
f 215/215/1 205/205/1 221/221/1
f 205/205/1 215/215/1 189/189/1
f 222/222/2 206/206/2 216/216/2
f 190/190/2 216/216/2 206/206/2
f 207/207/3 227/227/3 223/223/3
f 224/224/75 228/228/75 208/208/75
f 229/229/5 217/217/5 225/225/5
f 226/226/8 218/218/8 230/230/8
f 219/219/4 233/233/4 185/185/4
f 186/186/3 234/234/3 220/220/3
f 235/235/8 204/204/8 188/188/8
f 187/187/5 203/203/5 236/236/5
f 227/227/3 207/207/3 239/239/3
f 240/240/76 208/208/76 228/228/76
f 217/217/5 229/229/5 245/245/5
f 246/246/8 230/230/8 218/218/8
f 233/233/4 219/219/4 247/247/4
f 248/248/3 220/220/3 234/234/3
f 204/204/8 235/235/8 241/241/8
f 242/242/5 236/236/5 203/203/5
f 237/237/2 231/231/2 243/243/2
f 244/244/1 232/232/1 238/238/1
f 231/231/2 237/237/2 249/249/2
f 250/250/1 238/238/1 232/232/1
f 251/251/1 257/257/1 263/263/1
f 257/257/1 251/251/1 269/269/1
f 264/264/2 258/258/2 252/252/2
f 270/270/2 252/252/2 258/258/2
f 259/259/3 275/275/3 265/265/3
f 266/266/4 276/276/4 260/260/4
f 277/277/5 253/253/5 267/267/5
f 268/268/8 254/254/8 278/278/8
f 255/255/77 191/191/77 271/271/77
f 272/272/78 192/192/78 256/256/78
f 194/194/8 261/261/8 273/273/8
f 274/274/5 262/262/5 193/193/5
f 275/275/3 259/259/3 201/201/3
f 202/202/4 260/260/4 276/276/4
f 253/253/5 277/277/5 281/281/5
f 282/282/8 278/278/8 254/254/8
f 191/191/79 255/255/79 283/283/79
f 284/284/80 256/256/80 192/192/80
f 261/261/8 194/194/8 198/198/8
f 197/197/5 193/193/5 262/262/5
f 195/195/2 279/279/2 199/199/2
f 200/200/1 280/280/1 196/196/1
f 279/279/2 195/195/2 285/285/2
f 286/286/1 196/196/1 280/280/1
f 287/287/1 291/291/1 289/289/1
f 290/290/2 292/292/2 288/288/2
f 291/291/1 287/287/1 293/293/1
f 294/294/2 288/288/2 292/292/2
