# Blender 3.3.1
# www.blender.org
mtllib base_front_wall.mtl
o Bottom4.001
v -1.181128 1.089231 -0.081694
v -1.181128 -0.094262 -0.081694
v -1.181128 -0.094262 -0.002806
v -1.181128 1.089231 -0.002806
v 0.007470 1.089231 -0.081694
v 0.007470 1.089231 -0.002806
v 0.007470 -0.094262 -0.081694
v 0.007470 -0.094262 -0.002806
v -1.185726 1.092590 -0.029117
v -1.185726 0.998641 -0.029117
v -1.185726 0.998641 1.022734
v -1.185726 1.092590 1.022734
v 0.002870 1.092590 1.022734
v 0.002870 1.092590 -0.029117
v 0.002870 0.998641 1.022734
v 0.002870 0.998641 -0.029117
v -1.182304 1.093035 0.993307
v -1.182304 -0.096965 0.993307
v -1.182304 1.093035 1.123357
v -1.182304 -0.096965 1.123357
v 0.006294 1.093035 0.993307
v 0.006294 1.093035 1.123357
v 0.006294 -0.096965 0.993307
v 0.006294 -0.096965 1.123357
v -1.179724 -0.001268 -0.029901
v -1.179724 -0.095214 -0.029901
v -1.179724 -0.001268 1.021949
v -1.179724 -0.095214 1.021949
v 0.008872 -0.001268 -0.029901
v 0.008872 -0.001268 1.021949
v 0.008872 -0.095214 -0.029901
v 0.008872 -0.095214 1.021949
vn -0.0000 -0.0000 1.0000
vn -0.0000 1.0000 -0.0000
vn 1.0000 -0.0000 -0.0000
vn -0.0000 -1.0000 -0.0000
vn -0.0000 -0.0000 -1.0000
vn -1.0000 -0.0000 -0.0000
vt 0.000000 0.000000
vt 0.000000 0.000000
vt 0.000130 0.292062
vt 0.000000 0.000000
vt 0.000130 0.426743
vt 0.000000 0.000000
vt 0.000000 0.000000
vt 0.238123 0.426743
vt 0.000000 0.000000
vt 0.000000 0.000000
vt 0.238123 0.292062
vt 0.000000 0.000000
vt 0.487282 0.000298
vt 0.000000 0.000000
vt 0.000230 0.000130
vt 0.000000 0.000000
vt 0.000130 0.291635
vt 0.000000 0.000000
vt 0.487181 0.291803
vt 0.000000 0.000000
vt 0.249188 0.291720
vt 0.000000 0.000000
vt 0.249289 0.000216
vt 0.000000 0.000000
vt 0.238123 0.291717
vt 0.000000 0.000000
vt 0.238223 0.000212
vt 0.000000 0.000000
vt 0.487541 0.745978
vt 0.000000 0.000000
vt 0.694307 0.745979
vt 0.000000 0.000000
vt 0.613500 0.692312
vt 0.000000 0.000000
vt 0.671398 0.640595
vt 0.000000 0.000000
vt 0.838481 0.504187
vt 0.858158 0.546349
vt 0.999870 0.487441
vt 0.920302 0.495124
vt 0.487541 0.000130
vt 0.000000 0.000000
vt 0.487541 0.487181
vt 0.000000 0.000000
vt 0.779046 0.000130
vt 0.000000 0.000000
vt 0.779046 0.487181
vt 0.000000 0.000000
vt 0.487541 0.238123
vt 0.000000 0.000000
vt 0.779046 0.238123
vt 0.000000 0.000000
vt 0.487541 0.249188
vt 0.000000 0.000000
vt 0.779046 0.249188
vt 0.000000 0.000000
s 0
usemtl None.005
f 4/5/1 3/3/1 8/11/1
f 8/11/1 6/8/1 4/5/1
f 12/19/2 13/21/2 14/23/2
f 14/23/2 9/13/2 12/19/2
f 13/21/3 15/25/3 16/27/3
f 16/27/3 14/23/3 13/21/3
f 10/15/4 16/27/4 15/25/4
f 15/25/4 11/17/4 10/15/4
f 18/31/5 17/29/5 21/37/5
f 21/37/2 17/29/2 19/33/2
f 23/39/3 21/37/3 22/38/3
f 19/33/2 22/38/2 21/37/2
f 21/37/5 23/39/5 18/31/5
f 22/38/3 24/40/3 23/39/3
f 18/31/4 23/39/4 24/40/4
f 24/40/1 22/38/1 19/33/1
f 19/33/1 20/35/1 24/40/1
f 24/40/4 20/35/4 18/31/4
f 29/49/2 25/41/2 27/45/2
f 27/45/2 30/51/2 29/49/2
f 31/53/3 29/49/3 30/51/3
f 30/51/3 32/55/3 31/53/3
f 26/43/4 31/53/4 32/55/4
f 32/55/4 28/47/4 26/43/4
usemtl None_NONE.006
f 2/2/5 1/1/5 5/7/5
f 1/1/6 2/2/6 3/4/6
f 3/4/6 4/6/6 1/1/6
f 5/7/2 1/1/2 4/6/2
f 4/6/2 6/9/2 5/7/2
f 5/7/5 7/10/5 2/2/5
f 7/10/3 5/7/3 6/9/3
f 6/9/3 8/12/3 7/10/3
f 2/2/4 7/10/4 8/12/4
f 8/12/4 3/4/4 2/2/4
f 9/14/6 10/16/6 11/18/6
f 11/18/6 12/20/6 9/14/6
f 10/16/5 9/14/5 14/24/5
f 14/24/5 16/28/5 10/16/5
f 15/26/1 13/22/1 12/20/1
f 12/20/1 11/18/1 15/26/1
f 17/30/6 18/32/6 20/36/6
f 20/36/6 19/34/6 17/30/6
f 26/44/5 25/42/5 29/50/5
f 25/42/6 26/44/6 28/48/6
f 28/48/6 27/46/6 25/42/6
f 29/50/5 31/54/5 26/44/5
f 32/56/1 30/52/1 27/46/1
f 27/46/1 28/48/1 32/56/1
