# Blender 3.3.1
# www.blender.org
mtllib drawer_demo0.mtl
o Bottom4_Drawer.002
v -0.465104 0.024302 0.031256
v -0.465104 0.477504 0.031256
v -0.465104 0.477504 0.150010
v -0.465104 0.024302 0.150010
v -0.006136 0.478160 0.029856
v -0.006136 0.023644 0.029856
v -0.465966 0.023644 0.029856
v -0.465966 0.478160 0.029856
v -0.006136 0.477504 0.150010
v -0.006136 0.478160 0.150010
v -0.465966 0.478160 0.150010
v -0.465966 0.023644 0.150010
v -0.006136 0.023644 0.150010
v -0.006136 0.024302 0.150010
v -0.006136 0.477504 0.031256
v -0.006136 0.024302 0.031256
v -0.468951 0.023644 0.150010
v -0.468951 0.023644 0.029856
v -0.468951 0.478160 0.029856
v -0.468951 0.478160 0.150010
v -0.006136 0.480324 0.150010
v -0.465966 0.480324 0.150010
v -0.006136 0.480324 0.029856
v -0.465966 0.021482 0.150010
v -0.006136 0.021482 0.150010
v -0.006136 0.021482 0.029856
v -0.465966 0.021482 0.029856
v -0.468925 0.023644 0.029856
v -0.468925 0.023644 0.150010
v -0.465966 0.480324 0.029856
v -0.468910 0.480324 0.150010
v -0.468910 0.478160 0.150010
v -0.468925 0.021482 0.029856
v -0.468925 0.021482 0.150010
v -0.468910 0.478160 0.029856
v -0.468910 0.480324 0.029856
v -0.008005 -0.000022 0.000016
v -0.008005 -0.000022 0.173580
v -0.008005 0.497978 0.173580
v -0.008005 0.497978 0.000016
v -0.000005 0.497978 0.173580
v -0.000005 0.497978 0.000016
v -0.000005 -0.000022 0.173580
v -0.000005 -0.000022 0.000016
vn 1.0000 -0.0000 -0.0000
vn -0.0000 -0.0000 -1.0000
vn -0.0000 -0.0000 1.0000
vn -0.0000 -1.0000 -0.0000
vn -0.0000 1.0000 -0.0000
vn -1.0000 -0.0000 -0.0000
vt 0.187632 0.106354
vt 0.180224 0.302655
vt 0.000170 0.411597
vt 0.000000 0.000000
vt 0.075945 0.000170
vt 0.000000 0.000000
vt 0.000000 0.000000
vt 0.000000 0.000000
vt 0.000000 0.000000
vt 0.000000 0.000000
vt 0.000000 0.000000
vt 0.000000 0.000000
vt 0.000000 0.000000
vt 0.000000 0.000000
vt 0.000000 0.000000
vt 0.000000 0.000000
vt 0.760087 0.411598
vt 0.000000 0.000000
vt 0.747454 0.011020
vt 0.000000 0.000000
vt 0.760428 0.292473
vt 0.000000 0.000000
vt 0.886066 0.292473
vt 0.000000 0.000000
vt 0.886066 0.000170
vt 0.000000 0.000000
vt 0.760428 0.000170
vt 0.000000 0.000000
vt 0.000000 0.000000
vt 0.613792 0.779249
vt 0.000170 0.779249
vt 0.000000 0.000000
vt 0.613792 0.904887
vt 0.000000 0.000000
vt 0.386208 0.537576
vt 0.000000 0.000000
vt 0.999830 0.537576
vt 0.000000 0.000000
vt 0.999829 0.411939
vt 0.000000 0.000000
vt 0.386208 0.411939
vt 0.000000 0.000000
vt 0.390156 0.537917
vt 0.000000 0.000000
vt 0.000000 0.000000
vt 0.000170 0.904887
vt 0.000000 0.000000
vt 0.000000 0.000000
vt 0.000000 0.000000
vt 0.000000 0.000000
vt 0.386208 0.537917
vt 0.000000 0.000000
vt 0.386208 0.663551
vt 0.000000 0.000000
vt 0.000000 0.000000
vt 0.000170 0.431054
vt 0.000000 0.000000
vt 0.000000 0.000000
vt 0.172348 0.413231
vt 0.000000 0.000000
vt 0.203800 0.717073
vt 0.381267 0.778909
vt 0.000000 0.000000
vt 0.213136 0.709405
vt 0.385867 0.765268
vt 0.000000 0.000000
vt 0.000000 0.000000
vt 0.185647 0.411939
vt 0.385867 0.411939
vt 0.000000 0.000000
s 0
usemtl None.013
f 1/1/1 2/2/1 3/3/1
f 3/3/1 4/5/1 1/1/1
f 5/7/2 6/8/2 7/9/2
f 7/9/2 8/10/2 5/7/2
f 9/11/3 10/12/3 11/13/3
f 12/14/3 13/15/3 14/16/3
f 12/14/3 14/16/3 4/6/3
f 3/4/3 9/11/3 11/13/3
f 12/14/3 4/6/3 3/4/3
f 11/13/3 12/14/3 3/4/3
f 5/7/1 10/12/1 9/11/1
f 5/7/1 9/11/1 15/18/1
f 14/16/1 13/15/1 6/8/1
f 5/7/1 15/18/1 16/20/1
f 16/20/1 14/16/1 6/8/1
f 5/7/1 16/20/1 6/8/1
f 7/9/4 12/14/4 17/22/4
f 7/9/4 17/22/4 18/24/4
f 11/13/5 8/10/5 19/26/5
f 11/13/5 19/26/5 20/28/5
f 11/13/3 10/12/3 21/29/3
f 11/13/3 21/29/3 22/32/3
f 10/12/1 5/7/1 23/34/1
f 10/12/1 23/34/1 21/29/1
f 1/1/3 16/19/3 15/17/3
f 15/17/3 2/2/3 1/1/3
f 3/3/4 2/2/4 15/17/4
f 15/18/4 9/11/4 3/4/4
f 16/19/5 1/1/5 4/5/5
f 4/6/5 14/16/5 16/20/5
f 13/15/3 12/14/3 24/36/3
f 13/15/3 24/36/3 25/38/3
f 7/9/2 6/8/2 26/40/2
f 7/9/2 26/40/2 27/42/2
f 26/39/4 25/37/4 24/35/4
f 24/35/4 27/41/4 26/39/4
f 12/14/5 7/9/5 28/44/5
f 12/14/5 28/44/5 29/45/5
f 6/8/1 13/15/1 25/38/1
f 6/8/1 25/38/1 26/40/1
f 21/30/5 23/33/5 30/46/5
f 30/46/5 22/31/5 21/30/5
f 5/7/2 8/10/2 30/47/2
f 5/7/2 30/47/2 23/34/2
f 11/13/3 22/32/3 31/48/3
f 11/13/3 31/48/3 32/49/3
f 18/23/6 17/21/6 20/27/6
f 20/27/6 19/25/6 18/23/6
f 8/10/2 7/9/2 18/24/2
f 8/10/2 18/24/2 19/26/2
f 12/14/3 11/13/3 20/28/3
f 12/14/3 20/28/3 17/22/3
f 29/45/6 28/44/6 33/50/6
f 29/45/6 33/50/6 34/52/6
f 7/9/2 27/42/2 33/50/2
f 7/9/2 33/50/2 28/44/2
f 24/36/3 12/14/3 29/45/3
f 24/36/3 29/45/3 34/52/3
f 27/42/4 24/36/4 34/52/4
f 27/43/4 34/53/4 33/51/4
f 35/54/6 32/49/6 31/48/6
f 35/54/6 31/48/6 36/55/6
f 8/10/4 11/13/4 32/49/4
f 8/10/4 32/49/4 35/54/4
f 30/47/2 8/10/2 35/54/2
f 30/47/2 35/54/2 36/55/2
f 22/32/5 30/47/5 36/55/5
f 22/32/5 36/55/5 31/48/5
f 37/56/6 38/59/6 39/61/6
f 39/60/6 40/63/6 37/57/6
f 40/62/5 39/61/5 41/64/5
f 41/64/5 42/65/5 40/62/5
f 42/65/1 41/64/1 43/68/1
f 43/68/1 44/69/1 42/65/1
f 38/58/4 37/57/4 44/70/4
f 44/70/4 43/67/4 38/58/4
f 44/70/2 37/57/2 40/63/2
f 40/63/2 42/66/2 44/70/2
f 41/64/3 39/61/3 38/59/3
f 38/59/3 43/68/3 41/64/3
